<mxfile host="Electron" modified="2023-07-08T15:51:09.946Z" agent="Mozilla/5.0 (X11; Linux x86_64) AppleWebKit/537.36 (KHTML, like Gecko) draw.io/21.6.1 Chrome/112.0.5615.204 Electron/24.6.1 Safari/537.36" etag="m5qQh3RfIkA39bA1drpH" version="21.6.1" type="device">
  <diagram name="Page-1" id="cCIsCEk7duTiTZes-PcG">
    <mxGraphModel dx="1114" dy="1199" grid="1" gridSize="10" guides="1" tooltips="1" connect="1" arrows="1" fold="1" page="1" pageScale="1" pageWidth="827" pageHeight="1169" math="0" shadow="0">
      <root>
        <mxCell id="0" />
        <mxCell id="1" parent="0" />
        <mxCell id="Iiv7pgAZWkJd4Ql2WUxX-1" value="gui" style="shape=folder;fontStyle=1;spacingTop=10;tabWidth=40;tabHeight=14;tabPosition=left;html=1;whiteSpace=wrap;labelPosition=center;verticalLabelPosition=bottom;align=center;verticalAlign=top;" vertex="1" parent="1">
          <mxGeometry width="600" height="520" as="geometry" />
        </mxCell>
        <mxCell id="Iiv7pgAZWkJd4Ql2WUxX-11" style="edgeStyle=orthogonalEdgeStyle;rounded=0;orthogonalLoop=1;jettySize=auto;html=1;entryX=0.5;entryY=0;entryDx=0;entryDy=0;exitX=0;exitY=0.5;exitDx=10;exitDy=0;exitPerimeter=0;" edge="1" parent="1" source="Iiv7pgAZWkJd4Ql2WUxX-2" target="Iiv7pgAZWkJd4Ql2WUxX-3">
          <mxGeometry relative="1" as="geometry">
            <Array as="points">
              <mxPoint x="140" y="105" />
            </Array>
          </mxGeometry>
        </mxCell>
        <mxCell id="Iiv7pgAZWkJd4Ql2WUxX-16" value="Signal" style="edgeLabel;html=1;align=center;verticalAlign=middle;resizable=0;points=[];" vertex="1" connectable="0" parent="Iiv7pgAZWkJd4Ql2WUxX-11">
          <mxGeometry x="0.3057" y="1" relative="1" as="geometry">
            <mxPoint as="offset" />
          </mxGeometry>
        </mxCell>
        <mxCell id="Iiv7pgAZWkJd4Ql2WUxX-2" value="Pwndbg-Gui" style="shape=module;align=center;spacingLeft=20;align=center;verticalAlign=middle;whiteSpace=wrap;html=1;labelPosition=center;verticalLabelPosition=middle;fontStyle=1;fontSize=18;" vertex="1" parent="1">
          <mxGeometry x="210" y="60" width="180" height="90" as="geometry" />
        </mxCell>
        <mxCell id="Iiv7pgAZWkJd4Ql2WUxX-9" style="edgeStyle=orthogonalEdgeStyle;rounded=0;orthogonalLoop=1;jettySize=auto;html=1;horizontal=1;dashed=1;" edge="1" parent="1" source="Iiv7pgAZWkJd4Ql2WUxX-3" target="Iiv7pgAZWkJd4Ql2WUxX-5">
          <mxGeometry relative="1" as="geometry" />
        </mxCell>
        <mxCell id="Iiv7pgAZWkJd4Ql2WUxX-14" style="edgeStyle=orthogonalEdgeStyle;rounded=0;orthogonalLoop=1;jettySize=auto;html=1;entryX=0;entryY=0.5;entryDx=0;entryDy=0;" edge="1" parent="1" source="Iiv7pgAZWkJd4Ql2WUxX-3" target="Iiv7pgAZWkJd4Ql2WUxX-12">
          <mxGeometry relative="1" as="geometry" />
        </mxCell>
        <mxCell id="Iiv7pgAZWkJd4Ql2WUxX-17" value="MI command" style="edgeLabel;html=1;align=center;verticalAlign=middle;resizable=0;points=[];" vertex="1" connectable="0" parent="Iiv7pgAZWkJd4Ql2WUxX-14">
          <mxGeometry x="-0.2966" y="1" relative="1" as="geometry">
            <mxPoint as="offset" />
          </mxGeometry>
        </mxCell>
        <mxCell id="Iiv7pgAZWkJd4Ql2WUxX-3" value="«Worker»&lt;br&gt;&lt;b&gt;GdbHandler&lt;/b&gt;" style="html=1;dropTarget=0;whiteSpace=wrap;" vertex="1" parent="1">
          <mxGeometry x="50" y="290" width="180" height="90" as="geometry" />
        </mxCell>
        <mxCell id="Iiv7pgAZWkJd4Ql2WUxX-4" value="" style="shape=module;jettyWidth=8;jettyHeight=4;" vertex="1" parent="Iiv7pgAZWkJd4Ql2WUxX-3">
          <mxGeometry x="1" width="20" height="20" relative="1" as="geometry">
            <mxPoint x="-27" y="7" as="offset" />
          </mxGeometry>
        </mxCell>
        <mxCell id="Iiv7pgAZWkJd4Ql2WUxX-10" style="edgeStyle=orthogonalEdgeStyle;rounded=0;orthogonalLoop=1;jettySize=auto;html=1;entryX=1;entryY=0.5;entryDx=0;entryDy=0;" edge="1" parent="1" source="Iiv7pgAZWkJd4Ql2WUxX-5" target="Iiv7pgAZWkJd4Ql2WUxX-2">
          <mxGeometry relative="1" as="geometry" />
        </mxCell>
        <mxCell id="Iiv7pgAZWkJd4Ql2WUxX-19" value="Signal" style="edgeLabel;html=1;align=center;verticalAlign=middle;resizable=0;points=[];" vertex="1" connectable="0" parent="Iiv7pgAZWkJd4Ql2WUxX-10">
          <mxGeometry x="-0.1529" relative="1" as="geometry">
            <mxPoint as="offset" />
          </mxGeometry>
        </mxCell>
        <mxCell id="Iiv7pgAZWkJd4Ql2WUxX-5" value="«Worker»&lt;br&gt;&lt;b&gt;GdbReader&lt;/b&gt;" style="html=1;dropTarget=0;whiteSpace=wrap;" vertex="1" parent="1">
          <mxGeometry x="370" y="290" width="180" height="90" as="geometry" />
        </mxCell>
        <mxCell id="Iiv7pgAZWkJd4Ql2WUxX-6" value="" style="shape=module;jettyWidth=8;jettyHeight=4;" vertex="1" parent="Iiv7pgAZWkJd4Ql2WUxX-5">
          <mxGeometry x="1" width="20" height="20" relative="1" as="geometry">
            <mxPoint x="-27" y="7" as="offset" />
          </mxGeometry>
        </mxCell>
        <mxCell id="Iiv7pgAZWkJd4Ql2WUxX-15" style="edgeStyle=orthogonalEdgeStyle;rounded=0;orthogonalLoop=1;jettySize=auto;html=1;entryX=0.5;entryY=1;entryDx=0;entryDy=0;exitX=1;exitY=0.5;exitDx=0;exitDy=0;" edge="1" parent="1" source="Iiv7pgAZWkJd4Ql2WUxX-12" target="Iiv7pgAZWkJd4Ql2WUxX-5">
          <mxGeometry relative="1" as="geometry" />
        </mxCell>
        <mxCell id="Iiv7pgAZWkJd4Ql2WUxX-18" value="MI output" style="edgeLabel;html=1;align=center;verticalAlign=middle;resizable=0;points=[];" vertex="1" connectable="0" parent="Iiv7pgAZWkJd4Ql2WUxX-15">
          <mxGeometry x="0.4621" relative="1" as="geometry">
            <mxPoint as="offset" />
          </mxGeometry>
        </mxCell>
        <mxCell id="Iiv7pgAZWkJd4Ql2WUxX-12" value="«Subprocess»&lt;br&gt;&lt;b&gt;GDB MI&lt;/b&gt;" style="html=1;dropTarget=0;whiteSpace=wrap;" vertex="1" parent="1">
          <mxGeometry x="210" y="410" width="180" height="90" as="geometry" />
        </mxCell>
        <mxCell id="Iiv7pgAZWkJd4Ql2WUxX-13" value="" style="shape=module;jettyWidth=8;jettyHeight=4;" vertex="1" parent="Iiv7pgAZWkJd4Ql2WUxX-12">
          <mxGeometry x="1" width="20" height="20" relative="1" as="geometry">
            <mxPoint x="-27" y="7" as="offset" />
          </mxGeometry>
        </mxCell>
      </root>
    </mxGraphModel>
  </diagram>
</mxfile>
